<svg xmlns="http://www.w3.org/2000/svg" xmlns:xlink="http://www.w3.org/1999/xlink" width="500" zoomAndPan="magnify" viewBox="0 0 375 374.999991" height="500" preserveAspectRatio="xMidYMid meet" version="1.0"><defs><g/><clipPath id="a68546a98a"><path d="M 41.363281 77.238281 L 222.066406 77.238281 L 222.066406 257.941406 L 41.363281 257.941406 Z M 41.363281 77.238281 " clip-rule="nonzero"/></clipPath><clipPath id="d0ed2341b9"><path d="M 131.714844 77.238281 C 81.816406 77.238281 41.363281 117.6875 41.363281 167.589844 C 41.363281 217.488281 81.816406 257.941406 131.714844 257.941406 C 181.617188 257.941406 222.066406 217.488281 222.066406 167.589844 C 222.066406 117.6875 181.617188 77.238281 131.714844 77.238281 Z M 131.714844 77.238281 " clip-rule="nonzero"/></clipPath><clipPath id="bbdf301b73"><path d="M 0 52 L 237 52 L 237 334.28125 L 0 334.28125 Z M 0 52 " clip-rule="nonzero"/></clipPath><clipPath id="953e96b858"><path d="M 13 25 L 64 25 L 64 123.847656 L 13 123.847656 Z M 13 25 " clip-rule="nonzero"/></clipPath><clipPath id="16d247d23a"><rect x="0" width="155" y="0" height="125"/></clipPath><clipPath id="0239e9a2fe"><rect x="0" width="299" y="0" height="335"/></clipPath></defs><g transform="matrix(1, 0, 0, 1, 0, 1)"><g clip-path="url(#0239e9a2fe)"><g clip-path="url(#a68546a98a)"><g clip-path="url(#d0ed2341b9)"><path stroke-linecap="butt" transform="matrix(0.94842, 0, 0, 0.94842, 41.364117, 77.236685)" fill="none" stroke-linejoin="miter" d="M 95.264455 0.00168279 C 42.652289 0.00168279 -0.000881185 42.650734 -0.000881185 95.267019 C -0.000881185 147.879185 42.652289 190.532355 95.264455 190.532355 C 147.88074 190.532355 190.529791 147.879185 190.529791 95.267019 C 190.529791 42.650734 147.88074 0.00168279 95.264455 0.00168279 Z M 95.264455 0.00168279 " stroke="#2a3847" stroke-width="39.539436" stroke-opacity="1" stroke-miterlimit="4"/></g></g><g clip-path="url(#bbdf301b73)"><path stroke-linecap="butt" transform="matrix(0.614631, 0.722308, -0.722308, 0.614631, 62.933979, 180.971463)" fill="none" stroke-linejoin="miter" d="M 4.619862 12.151868 C 26.194615 20.354148 47.768912 20.352092 69.343223 12.151505 " stroke="#ffffff" stroke-width="26" stroke-opacity="1" stroke-miterlimit="4"/></g><g transform="matrix(1, 0, 0, 1, 35, 133)"><g clip-path="url(#16d247d23a)"><path fill="#000000" d="M 19.46875 118.359375 L 57.859375 31 " fill-opacity="1" fill-rule="nonzero"/><g clip-path="url(#953e96b858)"><path fill="#6e56cf" d="M 14.445312 116.148438 L 52.835938 28.792969 C 52.980469 28.460938 53.15625 28.148438 53.363281 27.851562 C 53.570312 27.558594 53.804688 27.285156 54.0625 27.035156 C 54.324219 26.789062 54.605469 26.566406 54.910156 26.371094 C 55.214844 26.179688 55.53125 26.015625 55.867188 25.886719 C 56.203125 25.753906 56.550781 25.65625 56.90625 25.59375 C 57.257812 25.53125 57.617188 25.503906 57.976562 25.511719 C 58.335938 25.519531 58.695312 25.5625 59.046875 25.640625 C 59.398438 25.71875 59.738281 25.828125 60.066406 25.976562 C 60.398438 26.121094 60.710938 26.296875 61.003906 26.503906 C 61.300781 26.707031 61.574219 26.941406 61.824219 27.203125 C 62.070312 27.460938 62.292969 27.746094 62.488281 28.046875 C 62.679688 28.351562 62.84375 28.671875 62.972656 29.007812 C 63.105469 29.34375 63.203125 29.6875 63.265625 30.042969 C 63.328125 30.398438 63.355469 30.757812 63.347656 31.117188 C 63.339844 31.476562 63.296875 31.832031 63.21875 32.183594 C 63.140625 32.535156 63.027344 32.878906 62.882812 33.207031 L 24.492188 120.566406 C 24.347656 120.894531 24.171875 121.207031 23.964844 121.503906 C 23.757812 121.800781 23.527344 122.070312 23.265625 122.320312 C 23.007812 122.570312 22.722656 122.792969 22.421875 122.984375 C 22.117188 123.179688 21.796875 123.339844 21.460938 123.472656 C 21.125 123.601562 20.78125 123.699219 20.425781 123.761719 C 20.070312 123.824219 19.710938 123.851562 19.351562 123.84375 C 18.992188 123.835938 18.636719 123.792969 18.285156 123.714844 C 17.933594 123.640625 17.589844 123.527344 17.261719 123.382812 C 16.929688 123.238281 16.617188 123.0625 16.324219 122.855469 C 16.027344 122.648438 15.757812 122.414062 15.507812 122.15625 C 15.257812 121.894531 15.035156 121.613281 14.84375 121.308594 C 14.648438 121.003906 14.484375 120.683594 14.355469 120.347656 C 14.226562 120.015625 14.128906 119.667969 14.066406 119.3125 C 14.003906 118.957031 13.976562 118.601562 13.984375 118.242188 C 13.992188 117.878906 14.03125 117.523438 14.109375 117.171875 C 14.1875 116.820312 14.300781 116.480469 14.445312 116.148438 Z M 14.445312 116.148438 " fill-opacity="1" fill-rule="nonzero"/></g><path fill="#000000" d="M 57.859375 31 L 96.25 67.957031 " fill-opacity="1" fill-rule="nonzero"/><path fill="#6e56cf" d="M 61.667969 27.046875 L 100.058594 64.003906 C 100.316406 64.253906 100.550781 64.527344 100.753906 64.824219 C 100.960938 65.121094 101.136719 65.433594 101.28125 65.761719 C 101.425781 66.09375 101.535156 66.433594 101.613281 66.785156 C 101.6875 67.136719 101.730469 67.496094 101.738281 67.855469 C 101.746094 68.214844 101.714844 68.574219 101.652344 68.925781 C 101.589844 69.28125 101.492188 69.625 101.359375 69.960938 C 101.226562 70.296875 101.066406 70.617188 100.871094 70.921875 C 100.675781 71.222656 100.453125 71.503906 100.203125 71.765625 C 99.953125 72.023438 99.679688 72.257812 99.386719 72.464844 C 99.089844 72.667969 98.777344 72.84375 98.445312 72.988281 C 98.117188 73.132812 97.773438 73.242188 97.421875 73.320312 C 97.070312 73.398438 96.714844 73.4375 96.355469 73.445312 C 95.996094 73.453125 95.636719 73.425781 95.28125 73.359375 C 94.925781 73.296875 94.582031 73.199219 94.246094 73.066406 C 93.910156 72.9375 93.59375 72.773438 93.289062 72.578125 C 92.984375 72.382812 92.703125 72.164062 92.445312 71.914062 L 54.054688 34.953125 C 53.792969 34.703125 53.5625 34.429688 53.355469 34.132812 C 53.148438 33.839844 52.976562 33.527344 52.832031 33.195312 C 52.6875 32.863281 52.574219 32.523438 52.5 32.171875 C 52.421875 31.820312 52.378906 31.464844 52.371094 31.101562 C 52.367188 30.742188 52.394531 30.386719 52.457031 30.03125 C 52.523438 29.675781 52.621094 29.332031 52.75 28.996094 C 52.882812 28.660156 53.046875 28.339844 53.238281 28.039062 C 53.433594 27.734375 53.65625 27.453125 53.90625 27.191406 C 54.15625 26.933594 54.429688 26.699219 54.726562 26.496094 C 55.019531 26.289062 55.332031 26.113281 55.664062 25.96875 C 55.992188 25.824219 56.335938 25.714844 56.6875 25.636719 C 57.039062 25.5625 57.394531 25.519531 57.753906 25.511719 C 58.117188 25.503906 58.472656 25.535156 58.828125 25.597656 C 59.183594 25.660156 59.527344 25.757812 59.863281 25.890625 C 60.199219 26.023438 60.519531 26.183594 60.820312 26.378906 C 61.125 26.574219 61.40625 26.796875 61.667969 27.046875 Z M 61.667969 27.046875 " fill-opacity="1" fill-rule="nonzero"/><path fill="#000000" d="M 96.25 67.957031 L 134.640625 7.480469 " fill-opacity="1" fill-rule="nonzero"/><path fill="#6e56cf" d="M 91.617188 65.019531 L 130.007812 4.539062 C 130.199219 4.234375 130.421875 3.953125 130.671875 3.691406 C 130.917969 3.429688 131.191406 3.195312 131.484375 2.988281 C 131.78125 2.78125 132.09375 2.605469 132.421875 2.460938 C 132.753906 2.3125 133.09375 2.203125 133.445312 2.125 C 133.796875 2.046875 134.152344 2 134.511719 1.992188 C 134.871094 1.984375 135.230469 2.011719 135.585938 2.074219 C 135.941406 2.136719 136.285156 2.230469 136.621094 2.363281 C 136.957031 2.492188 137.277344 2.652344 137.582031 2.847656 C 137.886719 3.039062 138.167969 3.261719 138.429688 3.507812 C 138.691406 3.757812 138.925781 4.03125 139.132812 4.324219 C 139.339844 4.621094 139.515625 4.929688 139.660156 5.261719 C 139.804688 5.589844 139.917969 5.929688 139.996094 6.28125 C 140.074219 6.632812 140.117188 6.992188 140.128906 7.351562 C 140.136719 7.710938 140.109375 8.070312 140.046875 8.421875 C 139.984375 8.777344 139.890625 9.125 139.757812 9.460938 C 139.628906 9.796875 139.46875 10.117188 139.273438 10.421875 L 100.882812 70.898438 C 100.691406 71.203125 100.46875 71.488281 100.222656 71.746094 C 99.972656 72.007812 99.699219 72.242188 99.40625 72.449219 C 99.109375 72.65625 98.796875 72.832031 98.46875 72.976562 C 98.140625 73.125 97.796875 73.234375 97.445312 73.316406 C 97.09375 73.394531 96.738281 73.4375 96.378906 73.445312 C 96.019531 73.453125 95.660156 73.425781 95.304688 73.363281 C 94.953125 73.304688 94.605469 73.207031 94.269531 73.078125 C 93.933594 72.945312 93.613281 72.785156 93.308594 72.59375 C 93.003906 72.398438 92.722656 72.179688 92.460938 71.929688 C 92.203125 71.679688 91.96875 71.410156 91.761719 71.113281 C 91.554688 70.820312 91.375 70.507812 91.230469 70.175781 C 91.085938 69.847656 90.972656 69.507812 90.894531 69.15625 C 90.816406 68.804688 90.773438 68.449219 90.765625 68.085938 C 90.753906 67.726562 90.78125 67.371094 90.84375 67.015625 C 90.90625 66.660156 91.003906 66.3125 91.132812 65.976562 C 91.261719 65.640625 91.425781 65.320312 91.617188 65.019531 Z M 129.152344 7.480469 C 129.152344 7.117188 129.1875 6.761719 129.257812 6.410156 C 129.328125 6.054688 129.433594 5.710938 129.570312 5.378906 C 129.707031 5.046875 129.878906 4.730469 130.078125 4.429688 C 130.277344 4.132812 130.503906 3.855469 130.761719 3.597656 C 131.015625 3.34375 131.292969 3.117188 131.59375 2.917969 C 131.890625 2.714844 132.207031 2.546875 132.539062 2.410156 C 132.875 2.269531 133.21875 2.167969 133.570312 2.097656 C 133.925781 2.027344 134.28125 1.992188 134.640625 1.992188 C 135 1.992188 135.359375 2.027344 135.710938 2.097656 C 136.066406 2.167969 136.410156 2.269531 136.742188 2.410156 C 137.074219 2.546875 137.390625 2.714844 137.691406 2.917969 C 137.988281 3.117188 138.265625 3.34375 138.523438 3.597656 C 138.777344 3.855469 139.003906 4.132812 139.203125 4.429688 C 139.40625 4.730469 139.574219 5.046875 139.710938 5.378906 C 139.847656 5.710938 139.953125 6.054688 140.023438 6.410156 C 140.09375 6.761719 140.128906 7.117188 140.128906 7.480469 C 140.128906 7.839844 140.09375 8.195312 140.023438 8.550781 C 139.953125 8.902344 139.847656 9.246094 139.710938 9.578125 C 139.574219 9.914062 139.40625 10.230469 139.203125 10.527344 C 139.003906 10.828125 138.777344 11.105469 138.523438 11.359375 C 138.265625 11.613281 137.988281 11.84375 137.691406 12.042969 C 137.390625 12.242188 137.074219 12.410156 136.742188 12.550781 C 136.410156 12.6875 136.066406 12.792969 135.710938 12.863281 C 135.359375 12.933594 135 12.96875 134.640625 12.96875 C 134.28125 12.96875 133.925781 12.933594 133.570312 12.863281 C 133.21875 12.792969 132.875 12.6875 132.539062 12.550781 C 132.207031 12.410156 131.890625 12.242188 131.59375 12.042969 C 131.292969 11.84375 131.015625 11.613281 130.761719 11.359375 C 130.503906 11.105469 130.277344 10.828125 130.078125 10.527344 C 129.878906 10.230469 129.707031 9.914062 129.570312 9.578125 C 129.433594 9.246094 129.328125 8.902344 129.257812 8.550781 C 129.1875 8.195312 129.152344 7.839844 129.152344 7.480469 Z M 129.152344 7.480469 " fill-opacity="1" fill-rule="nonzero"/></g></g><path stroke-linecap="butt" transform="matrix(0.504274, -0.803249, 0.803249, 0.504274, 143.112475, 173.045999)" fill="none" stroke-linejoin="miter" d="M -0.000210336 5.501262 L 52.437132 5.499529 " stroke="#6e56cf" stroke-width="11" stroke-opacity="1" stroke-miterlimit="4"/><path stroke-linecap="round" transform="matrix(0.504274, -0.803249, 0.803249, 0.504274, 143.112475, 173.045999)" fill="none" stroke-linejoin="round" d="M 30.436567 -11.000145 L 52.437132 5.499529 L 30.437287 22.000163 " stroke="#6e56cf" stroke-width="11" stroke-opacity="1" stroke-miterlimit="4"/></g></g><g fill="#2a3847" fill-opacity="1"><g transform="translate(222.082416, 165.340112)"><g><path d="M 15.765625 0.28125 C 13.117188 0.28125 10.695312 -0.332031 8.5 -1.5625 C 6.300781 -2.789062 4.550781 -4.503906 3.25 -6.703125 C 1.957031 -8.898438 1.3125 -11.375 1.3125 -14.125 C 1.3125 -16.863281 1.957031 -19.328125 3.25 -21.515625 C 4.550781 -23.703125 6.300781 -25.410156 8.5 -26.640625 C 10.695312 -27.867188 13.117188 -28.484375 15.765625 -28.484375 C 18.398438 -28.484375 20.816406 -27.867188 23.015625 -26.640625 C 25.210938 -25.410156 26.945312 -23.703125 28.21875 -21.515625 C 29.488281 -19.328125 30.125 -16.863281 30.125 -14.125 C 30.125 -11.375 29.484375 -8.898438 28.203125 -6.703125 C 26.921875 -4.503906 25.1875 -2.789062 23 -1.5625 C 20.8125 -0.332031 18.398438 0.28125 15.765625 0.28125 Z M 15.765625 -5.953125 C 18.003906 -5.953125 19.796875 -6.695312 21.140625 -8.1875 C 22.484375 -9.6875 23.15625 -11.664062 23.15625 -14.125 C 23.15625 -16.601562 22.484375 -18.582031 21.140625 -20.0625 C 19.796875 -21.539062 18.003906 -22.28125 15.765625 -22.28125 C 13.492188 -22.28125 11.679688 -21.546875 10.328125 -20.078125 C 8.984375 -18.609375 8.3125 -16.625 8.3125 -14.125 C 8.3125 -11.644531 8.984375 -9.660156 10.328125 -8.171875 C 11.679688 -6.691406 13.492188 -5.953125 15.765625 -5.953125 Z M 15.765625 -5.953125 "/></g></g></g><g fill="#2a3847" fill-opacity="1"><g transform="translate(253.519288, 165.340112)"><g><path d="M 16.078125 -22.5625 C 18.691406 -22.5625 20.78125 -21.710938 22.34375 -20.015625 C 23.90625 -18.328125 24.6875 -16.003906 24.6875 -13.046875 L 24.6875 0 L 17.875 0 L 17.875 -12.125 C 17.875 -13.613281 17.488281 -14.769531 16.71875 -15.59375 C 15.945312 -16.425781 14.90625 -16.84375 13.59375 -16.84375 C 12.289062 -16.84375 11.25 -16.425781 10.46875 -15.59375 C 9.695312 -14.769531 9.3125 -13.613281 9.3125 -12.125 L 9.3125 0 L 2.484375 0 L 2.484375 -22.3125 L 9.3125 -22.3125 L 9.3125 -19.359375 C 10.007812 -20.347656 10.941406 -21.128906 12.109375 -21.703125 C 13.285156 -22.273438 14.609375 -22.5625 16.078125 -22.5625 Z M 16.078125 -22.5625 "/></g></g></g><g fill="#2a3847" fill-opacity="1"><g transform="translate(280.476611, 165.340112)"><g><path d="M 23.515625 -11.515625 C 23.515625 -10.878906 23.476562 -10.210938 23.40625 -9.515625 L 7.921875 -9.515625 C 8.023438 -8.128906 8.46875 -7.066406 9.25 -6.328125 C 10.039062 -5.597656 11.007812 -5.234375 12.15625 -5.234375 C 13.863281 -5.234375 15.050781 -5.957031 15.71875 -7.40625 L 23 -7.40625 C 22.625 -5.9375 21.945312 -4.613281 20.96875 -3.4375 C 20 -2.269531 18.78125 -1.351562 17.3125 -0.6875 C 15.851562 -0.0195312 14.21875 0.3125 12.40625 0.3125 C 10.21875 0.3125 8.269531 -0.148438 6.5625 -1.078125 C 4.851562 -2.015625 3.519531 -3.347656 2.5625 -5.078125 C 1.601562 -6.816406 1.125 -8.84375 1.125 -11.15625 C 1.125 -13.476562 1.59375 -15.503906 2.53125 -17.234375 C 3.476562 -18.972656 4.804688 -20.304688 6.515625 -21.234375 C 8.222656 -22.171875 10.1875 -22.640625 12.40625 -22.640625 C 14.5625 -22.640625 16.476562 -22.1875 18.15625 -21.28125 C 19.84375 -20.375 21.15625 -19.078125 22.09375 -17.390625 C 23.039062 -15.710938 23.515625 -13.753906 23.515625 -11.515625 Z M 16.515625 -13.3125 C 16.515625 -14.488281 16.113281 -15.421875 15.3125 -16.109375 C 14.519531 -16.804688 13.519531 -17.15625 12.3125 -17.15625 C 11.164062 -17.15625 10.195312 -16.820312 9.40625 -16.15625 C 8.625 -15.488281 8.140625 -14.539062 7.953125 -13.3125 Z M 16.515625 -13.3125 "/></g></g></g><g fill="#6e56cf" fill-opacity="1"><g transform="translate(225.485747, 203.795831)"><g><path d="M 27.390625 -26.671875 L 17.9375 0 L 9.796875 0 L 0.34375 -26.671875 L 7.265625 -26.671875 L 13.875 -6.53125 L 20.515625 -26.671875 Z M 27.390625 -26.671875 "/></g></g></g><g fill="#6e56cf" fill-opacity="1"><g transform="translate(253.220079, 203.795831)"><g><path d="M 5.625 -23.40625 C 4.476562 -23.40625 3.546875 -23.738281 2.828125 -24.40625 C 2.109375 -25.082031 1.75 -25.914062 1.75 -26.90625 C 1.75 -27.914062 2.109375 -28.753906 2.828125 -29.421875 C 3.546875 -30.097656 4.476562 -30.4375 5.625 -30.4375 C 6.738281 -30.4375 7.65625 -30.097656 8.375 -29.421875 C 9.101562 -28.753906 9.46875 -27.914062 9.46875 -26.90625 C 9.46875 -25.914062 9.101562 -25.082031 8.375 -24.40625 C 7.65625 -23.738281 6.738281 -23.40625 5.625 -23.40625 Z M 8.859375 -21.203125 L 8.859375 0 L 2.359375 0 L 2.359375 -21.203125 Z M 8.859375 -21.203125 "/></g></g></g><g fill="#6e56cf" fill-opacity="1"><g transform="translate(264.427792, 203.795831)"><g><path d="M 22.34375 -10.9375 C 22.34375 -10.332031 22.304688 -9.703125 22.234375 -9.046875 L 7.53125 -9.046875 C 7.625 -7.722656 8.046875 -6.710938 8.796875 -6.015625 C 9.546875 -5.328125 10.460938 -4.984375 11.546875 -4.984375 C 13.171875 -4.984375 14.300781 -5.664062 14.9375 -7.03125 L 21.84375 -7.03125 C 21.488281 -5.632812 20.847656 -4.378906 19.921875 -3.265625 C 19.003906 -2.148438 17.847656 -1.273438 16.453125 -0.640625 C 15.054688 -0.015625 13.5 0.296875 11.78125 0.296875 C 9.695312 0.296875 7.84375 -0.144531 6.21875 -1.03125 C 4.601562 -1.914062 3.335938 -3.179688 2.421875 -4.828125 C 1.515625 -6.472656 1.0625 -8.398438 1.0625 -10.609375 C 1.0625 -12.804688 1.507812 -14.726562 2.40625 -16.375 C 3.3125 -18.019531 4.570312 -19.285156 6.1875 -20.171875 C 7.8125 -21.066406 9.675781 -21.515625 11.78125 -21.515625 C 13.832031 -21.515625 15.65625 -21.082031 17.25 -20.21875 C 18.84375 -19.351562 20.085938 -18.125 20.984375 -16.53125 C 21.890625 -14.9375 22.34375 -13.070312 22.34375 -10.9375 Z M 15.6875 -12.65625 C 15.6875 -13.769531 15.304688 -14.65625 14.546875 -15.3125 C 13.785156 -15.96875 12.835938 -16.296875 11.703125 -16.296875 C 10.609375 -16.296875 9.6875 -15.976562 8.9375 -15.34375 C 8.195312 -14.71875 7.738281 -13.820312 7.5625 -12.65625 Z M 15.6875 -12.65625 "/></g></g></g><g fill="#6e56cf" fill-opacity="1"><g transform="translate(287.831016, 203.795831)"><g><path d="M 32.796875 -21.203125 L 27.0625 0 L 19.875 0 L 16.53125 -13.75 L 13.078125 0 L 5.921875 0 L 0.15625 -21.203125 L 6.65625 -21.203125 L 9.65625 -6.046875 L 13.21875 -21.203125 L 20.109375 -21.203125 L 23.71875 -6.125 L 26.671875 -21.203125 Z M 32.796875 -21.203125 "/></g></g></g></svg>