<svg xmlns="http://www.w3.org/2000/svg" xmlns:xlink="http://www.w3.org/1999/xlink" width="500" zoomAndPan="magnify" viewBox="0 0 375 374.999991" height="500" preserveAspectRatio="xMidYMid meet" version="1.0"><defs><clipPath id="5c5b5feb1b"><path d="M 78.003906 77.8125 L 267.363281 77.8125 L 267.363281 267.171875 L 78.003906 267.171875 Z M 78.003906 77.8125 " clip-rule="nonzero"/></clipPath><clipPath id="3f48c98f8b"><path d="M 172.683594 77.8125 C 120.394531 77.8125 78.003906 120.203125 78.003906 172.492188 C 78.003906 224.78125 120.394531 267.171875 172.683594 267.171875 C 224.972656 267.171875 267.363281 224.78125 267.363281 172.492188 C 267.363281 120.203125 224.972656 77.8125 172.683594 77.8125 Z M 172.683594 77.8125 " clip-rule="nonzero"/></clipPath><clipPath id="9addb383e0"><path d="M 0.960938 51 L 283 51 L 283 344.28125 L 0.960938 344.28125 Z M 0.960938 51 " clip-rule="nonzero"/></clipPath><clipPath id="bbd653e667"><path d="M 14 26 L 67 26 L 67 130.023438 L 14 130.023438 Z M 14 26 " clip-rule="nonzero"/></clipPath><clipPath id="80cc5668c3"><rect x="0" width="162" y="0" height="131"/></clipPath><clipPath id="a5b5933b9b"><rect x="0" width="345" y="0" height="345"/></clipPath></defs><g transform="matrix(1, 0, 0, 1, 18, 15)"><g clip-path="url(#a5b5933b9b)"><g clip-path="url(#5c5b5feb1b)"><g clip-path="url(#3f48c98f8b)"><path stroke-linecap="butt" transform="matrix(0.993844, 0, 0, 0.993844, 78.004064, 77.81314)" fill="none" stroke-linejoin="miter" d="M 95.265997 -0.000643467 C 42.653044 -0.000643467 -0.000158522 42.652559 -0.000158522 95.265513 C -0.000158522 147.878466 42.653044 190.531669 95.265997 190.531669 C 147.878951 190.531669 190.532153 147.878466 190.532153 95.265513 C 190.532153 42.652559 147.878951 -0.000643467 95.265997 -0.000643467 Z M 95.265997 -0.000643467 " stroke="#2a3847" stroke-width="37.732281" stroke-opacity="1" stroke-miterlimit="4"/></g></g><g clip-path="url(#9addb383e0)"><path stroke-linecap="butt" transform="matrix(0.644068, 0.756903, -0.756903, 0.644068, 100.606996, 186.516227)" fill="none" stroke-linejoin="miter" d="M 4.621316 12.150466 C 26.194017 20.355879 47.769183 20.352501 69.342166 12.151858 " stroke="#ffffff" stroke-width="26" stroke-opacity="1" stroke-miterlimit="4"/></g><g transform="matrix(1, 0, 0, 1, 71, 136)"><g clip-path="url(#80cc5668c3)"><path fill="#000000" d="M 20.738281 124.273438 L 60.964844 32.730469 " fill-opacity="1" fill-rule="nonzero"/><g clip-path="url(#bbd653e667)"><path fill="#6e56cf" d="M 15.472656 121.960938 L 55.703125 30.417969 C 55.851562 30.070312 56.039062 29.742188 56.253906 29.433594 C 56.46875 29.125 56.714844 28.839844 56.988281 28.578125 C 57.261719 28.316406 57.554688 28.085938 57.875 27.882812 C 58.191406 27.679688 58.527344 27.507812 58.878906 27.371094 C 59.230469 27.234375 59.59375 27.132812 59.964844 27.066406 C 60.335938 27.003906 60.710938 26.972656 61.089844 26.980469 C 61.464844 26.988281 61.839844 27.035156 62.207031 27.117188 C 62.578125 27.199219 62.933594 27.3125 63.28125 27.464844 C 63.625 27.617188 63.953125 27.800781 64.261719 28.019531 C 64.570312 28.234375 64.855469 28.480469 65.117188 28.753906 C 65.378906 29.023438 65.613281 29.320312 65.816406 29.640625 C 66.019531 29.957031 66.1875 30.292969 66.324219 30.644531 C 66.460938 30.996094 66.5625 31.359375 66.628906 31.730469 C 66.695312 32.101562 66.722656 32.476562 66.714844 32.855469 C 66.707031 33.230469 66.664062 33.605469 66.582031 33.972656 C 66.5 34.34375 66.382812 34.699219 66.230469 35.042969 L 26 126.585938 C 25.851562 126.933594 25.664062 127.261719 25.449219 127.570312 C 25.234375 127.878906 24.988281 128.164062 24.714844 128.425781 C 24.441406 128.6875 24.148438 128.917969 23.828125 129.121094 C 23.511719 129.324219 23.175781 129.496094 22.824219 129.632812 C 22.472656 129.769531 22.109375 129.871094 21.738281 129.9375 C 21.367188 130.003906 20.992188 130.03125 20.613281 130.023438 C 20.238281 130.015625 19.863281 129.96875 19.496094 129.890625 C 19.125 129.808594 18.769531 129.691406 18.421875 129.539062 C 18.078125 129.386719 17.75 129.203125 17.441406 128.984375 C 17.132812 128.769531 16.847656 128.523438 16.585938 128.253906 C 16.324219 127.980469 16.089844 127.683594 15.886719 127.367188 C 15.683594 127.046875 15.515625 126.710938 15.378906 126.359375 C 15.242188 126.007812 15.140625 125.648438 15.074219 125.273438 C 15.007812 124.902344 14.980469 124.527344 14.988281 124.152344 C 14.996094 123.773438 15.039062 123.402344 15.121094 123.03125 C 15.203125 122.664062 15.320312 122.304688 15.472656 121.960938 Z M 15.472656 121.960938 " fill-opacity="1" fill-rule="nonzero"/></g><path fill="#000000" d="M 60.964844 32.730469 L 101.195312 71.460938 " fill-opacity="1" fill-rule="nonzero"/><path fill="#6e56cf" d="M 64.953125 28.589844 L 105.183594 67.316406 C 105.457031 67.578125 105.699219 67.867188 105.914062 68.175781 C 106.132812 68.484375 106.316406 68.8125 106.464844 69.160156 C 106.617188 69.503906 106.734375 69.863281 106.8125 70.230469 C 106.894531 70.601562 106.9375 70.972656 106.945312 71.351562 C 106.953125 71.730469 106.921875 72.105469 106.855469 72.476562 C 106.789062 72.847656 106.6875 73.207031 106.550781 73.558594 C 106.410156 73.910156 106.242188 74.246094 106.035156 74.5625 C 105.832031 74.882812 105.601562 75.175781 105.339844 75.449219 C 105.078125 75.722656 104.789062 75.964844 104.480469 76.179688 C 104.171875 76.398438 103.84375 76.578125 103.496094 76.730469 C 103.152344 76.882812 102.792969 76.996094 102.425781 77.078125 C 102.054688 77.160156 101.683594 77.203125 101.304688 77.210938 C 100.925781 77.21875 100.550781 77.1875 100.179688 77.121094 C 99.808594 77.054688 99.449219 76.953125 99.097656 76.816406 C 98.746094 76.675781 98.410156 76.507812 98.09375 76.300781 C 97.773438 76.097656 97.480469 75.867188 97.207031 75.605469 L 56.976562 36.875 C 56.707031 36.613281 56.460938 36.324219 56.246094 36.015625 C 56.03125 35.707031 55.847656 35.378906 55.695312 35.03125 C 55.542969 34.6875 55.429688 34.328125 55.347656 33.960938 C 55.265625 33.589844 55.222656 33.21875 55.214844 32.839844 C 55.210938 32.460938 55.238281 32.089844 55.304688 31.714844 C 55.371094 31.34375 55.472656 30.984375 55.613281 30.632812 C 55.75 30.28125 55.921875 29.945312 56.125 29.628906 C 56.328125 29.308594 56.5625 29.015625 56.824219 28.742188 C 57.085938 28.46875 57.371094 28.226562 57.679688 28.011719 C 57.992188 27.796875 58.320312 27.613281 58.664062 27.460938 C 59.011719 27.308594 59.367188 27.195312 59.738281 27.113281 C 60.105469 27.03125 60.480469 26.988281 60.855469 26.980469 C 61.234375 26.972656 61.609375 27.003906 61.980469 27.070312 C 62.351562 27.136719 62.714844 27.238281 63.066406 27.378906 C 63.417969 27.515625 63.75 27.6875 64.070312 27.890625 C 64.386719 28.09375 64.683594 28.328125 64.953125 28.589844 Z M 64.953125 28.589844 " fill-opacity="1" fill-rule="nonzero"/><path fill="#000000" d="M 101.195312 71.460938 L 141.425781 8.085938 " fill-opacity="1" fill-rule="nonzero"/><path fill="#6e56cf" d="M 96.339844 68.378906 L 136.570312 5.003906 C 136.773438 4.683594 137.003906 4.386719 137.265625 4.113281 C 137.523438 3.839844 137.808594 3.597656 138.117188 3.378906 C 138.425781 3.164062 138.753906 2.976562 139.101562 2.824219 C 139.445312 2.671875 139.800781 2.554688 140.171875 2.472656 C 140.539062 2.390625 140.914062 2.34375 141.289062 2.335938 C 141.667969 2.328125 142.042969 2.355469 142.414062 2.417969 C 142.785156 2.484375 143.148438 2.585938 143.5 2.722656 C 143.851562 2.859375 144.1875 3.027344 144.507812 3.230469 C 144.824219 3.433594 145.121094 3.664062 145.394531 3.925781 C 145.667969 4.183594 145.914062 4.46875 146.128906 4.777344 C 146.347656 5.085938 146.53125 5.414062 146.683594 5.761719 C 146.835938 6.105469 146.953125 6.460938 147.039062 6.832031 C 147.121094 7.199219 147.164062 7.574219 147.175781 7.949219 C 147.183594 8.328125 147.15625 8.703125 147.089844 9.074219 C 147.023438 9.445312 146.925781 9.808594 146.789062 10.160156 C 146.652344 10.511719 146.480469 10.847656 146.28125 11.167969 L 106.050781 74.542969 C 105.847656 74.863281 105.617188 75.15625 105.355469 75.429688 C 105.09375 75.703125 104.8125 75.949219 104.5 76.167969 C 104.191406 76.382812 103.867188 76.566406 103.519531 76.71875 C 103.175781 76.875 102.816406 76.992188 102.449219 77.074219 C 102.082031 77.15625 101.707031 77.199219 101.332031 77.210938 C 100.953125 77.21875 100.578125 77.191406 100.207031 77.125 C 99.835938 77.0625 99.472656 76.960938 99.121094 76.824219 C 98.769531 76.6875 98.433594 76.519531 98.113281 76.316406 C 97.792969 76.113281 97.5 75.882812 97.226562 75.621094 C 96.953125 75.359375 96.707031 75.074219 96.488281 74.765625 C 96.273438 74.457031 96.089844 74.128906 95.933594 73.785156 C 95.78125 73.441406 95.664062 73.082031 95.582031 72.714844 C 95.5 72.347656 95.457031 71.972656 95.445312 71.59375 C 95.4375 71.21875 95.464844 70.84375 95.53125 70.472656 C 95.59375 70.097656 95.695312 69.738281 95.832031 69.386719 C 95.96875 69.03125 96.136719 68.699219 96.339844 68.378906 Z M 135.675781 8.085938 C 135.675781 7.707031 135.710938 7.332031 135.785156 6.964844 C 135.859375 6.59375 135.96875 6.234375 136.113281 5.882812 C 136.257812 5.535156 136.433594 5.203125 136.644531 4.890625 C 136.851562 4.574219 137.089844 4.285156 137.359375 4.019531 C 137.625 3.75 137.914062 3.511719 138.230469 3.304688 C 138.542969 3.09375 138.875 2.917969 139.222656 2.773438 C 139.574219 2.628906 139.933594 2.519531 140.304688 2.445312 C 140.671875 2.371094 141.046875 2.335938 141.425781 2.335938 C 141.800781 2.335938 142.175781 2.371094 142.546875 2.445312 C 142.917969 2.519531 143.277344 2.628906 143.625 2.773438 C 143.972656 2.917969 144.304688 3.09375 144.621094 3.304688 C 144.933594 3.511719 145.222656 3.75 145.492188 4.019531 C 145.757812 4.285156 145.996094 4.574219 146.207031 4.890625 C 146.417969 5.203125 146.59375 5.535156 146.738281 5.882812 C 146.882812 6.234375 146.992188 6.59375 147.066406 6.964844 C 147.140625 7.332031 147.175781 7.707031 147.175781 8.085938 C 147.175781 8.460938 147.140625 8.835938 147.066406 9.207031 C 146.992188 9.578125 146.882812 9.9375 146.738281 10.285156 C 146.59375 10.632812 146.417969 10.964844 146.207031 11.28125 C 145.996094 11.59375 145.757812 11.882812 145.492188 12.152344 C 145.222656 12.417969 144.933594 12.65625 144.621094 12.867188 C 144.304688 13.078125 143.972656 13.253906 143.625 13.398438 C 143.277344 13.542969 142.917969 13.652344 142.546875 13.726562 C 142.175781 13.796875 141.800781 13.835938 141.425781 13.835938 C 141.046875 13.835938 140.671875 13.796875 140.304688 13.726562 C 139.933594 13.652344 139.574219 13.542969 139.222656 13.398438 C 138.875 13.253906 138.542969 13.078125 138.230469 12.867188 C 137.914062 12.65625 137.625 12.417969 137.359375 12.152344 C 137.089844 11.882812 136.851562 11.59375 136.644531 11.28125 C 136.433594 10.964844 136.257812 10.632812 136.113281 10.285156 C 135.96875 9.9375 135.859375 9.578125 135.785156 9.207031 C 135.710938 8.835938 135.675781 8.460938 135.675781 8.085938 Z M 135.675781 8.085938 " fill-opacity="1" fill-rule="nonzero"/></g></g><path stroke-linecap="butt" transform="matrix(0.528426, -0.841719, 0.841719, 0.528426, 184.625557, 178.21115)" fill="none" stroke-linejoin="miter" d="M -0.000332395 5.498893 L 52.437219 5.500761 " stroke="#6e56cf" stroke-width="11" stroke-opacity="1" stroke-miterlimit="4"/><path stroke-linecap="round" transform="matrix(0.528426, -0.841719, 0.841719, 0.528426, 184.625557, 178.21115)" fill="none" stroke-linejoin="round" d="M 30.437851 -11.001872 L 52.437219 5.500761 L 30.43532 22.000433 " stroke="#6e56cf" stroke-width="11" stroke-opacity="1" stroke-miterlimit="4"/></g></g></svg>