<svg xmlns="http://www.w3.org/2000/svg" xmlns:xlink="http://www.w3.org/1999/xlink" width="500" zoomAndPan="magnify" viewBox="0 0 375 374.999991" height="500" preserveAspectRatio="xMidYMid meet" version="1.0"><defs><g/><clipPath id="b915d11718"><path d="M 40.089844 116.046875 L 182.988281 116.046875 L 182.988281 258.945312 L 40.089844 258.945312 Z M 40.089844 116.046875 " clip-rule="nonzero"/></clipPath><clipPath id="80fe6de629"><path d="M 111.539062 116.046875 C 72.078125 116.046875 40.089844 148.035156 40.089844 187.496094 C 40.089844 226.953125 72.078125 258.945312 111.539062 258.945312 C 151 258.945312 182.988281 226.953125 182.988281 187.496094 C 182.988281 148.035156 151 116.046875 111.539062 116.046875 Z M 111.539062 116.046875 " clip-rule="nonzero"/></clipPath><clipPath id="56e2cc1c07"><path d="M 11 20 L 51 20 L 51 98.078125 L 11 98.078125 Z M 11 20 " clip-rule="nonzero"/></clipPath><clipPath id="c9cc400bee"><rect x="0" width="122" y="0" height="99"/></clipPath></defs><g clip-path="url(#b915d11718)"><g clip-path="url(#80fe6de629)"><path stroke-linecap="butt" transform="matrix(0.75, 0, 0, 0.75, 40.089996, 116.044994)" fill="none" stroke-linejoin="miter" d="M 95.265429 0.00250803 C 42.650842 0.00250803 -0.00020261 42.653552 -0.00020261 95.268139 C -0.00020261 147.877518 42.650842 190.533771 95.265429 190.533771 C 147.880015 190.533771 190.53106 147.877518 190.53106 95.268139 C 190.53106 42.653552 147.880015 0.00250803 95.265429 0.00250803 Z M 95.265429 0.00250803 " stroke="#2a3847" stroke-width="50" stroke-opacity="1" stroke-miterlimit="4"/></g></g><path stroke-linecap="butt" transform="matrix(0.486043, 0.571193, -0.571193, 0.486043, 57.1472, 198.077301)" fill="none" stroke-linejoin="miter" d="M 4.619794 12.149118 C 26.196726 20.353946 47.770724 20.356611 69.345164 12.153149 " stroke="#ffffff" stroke-width="26" stroke-opacity="1" stroke-miterlimit="4"/><g transform="matrix(1, 0, 0, 1, 35, 160)"><g clip-path="url(#c9cc400bee)"><path fill="#000000" d="M 15.453125 93.738281 L 45.8125 24.65625 " fill-opacity="1" fill-rule="nonzero"/><g clip-path="url(#56e2cc1c07)"><path fill="#6e56cf" d="M 11.480469 91.992188 L 41.839844 22.910156 C 41.953125 22.648438 42.09375 22.402344 42.257812 22.167969 C 42.417969 21.933594 42.605469 21.71875 42.808594 21.523438 C 43.015625 21.324219 43.238281 21.148438 43.480469 20.996094 C 43.71875 20.84375 43.972656 20.714844 44.238281 20.613281 C 44.503906 20.507812 44.777344 20.433594 45.058594 20.382812 C 45.335938 20.332031 45.621094 20.3125 45.90625 20.316406 C 46.191406 20.324219 46.472656 20.355469 46.75 20.417969 C 47.027344 20.480469 47.296875 20.566406 47.558594 20.683594 C 47.820312 20.796875 48.066406 20.9375 48.300781 21.101562 C 48.535156 21.261719 48.75 21.449219 48.945312 21.652344 C 49.144531 21.859375 49.316406 22.082031 49.472656 22.324219 C 49.625 22.5625 49.753906 22.816406 49.855469 23.082031 C 49.960938 23.347656 50.035156 23.621094 50.085938 23.898438 C 50.136719 24.179688 50.15625 24.464844 50.152344 24.75 C 50.144531 25.035156 50.109375 25.316406 50.050781 25.59375 C 49.988281 25.871094 49.898438 26.140625 49.785156 26.402344 L 19.425781 95.484375 C 19.3125 95.746094 19.171875 95.992188 19.007812 96.226562 C 18.847656 96.460938 18.660156 96.675781 18.457031 96.871094 C 18.25 97.070312 18.027344 97.242188 17.785156 97.398438 C 17.546875 97.550781 17.292969 97.679688 17.027344 97.78125 C 16.761719 97.886719 16.488281 97.960938 16.210938 98.011719 C 15.929688 98.0625 15.644531 98.082031 15.359375 98.078125 C 15.074219 98.070312 14.792969 98.039062 14.515625 97.976562 C 14.238281 97.914062 13.96875 97.824219 13.707031 97.710938 C 13.445312 97.597656 13.199219 97.457031 12.964844 97.292969 C 12.730469 97.132812 12.515625 96.945312 12.320312 96.742188 C 12.121094 96.535156 11.949219 96.3125 11.792969 96.070312 C 11.640625 95.832031 11.511719 95.578125 11.410156 95.3125 C 11.304688 95.046875 11.230469 94.773438 11.179688 94.492188 C 11.128906 94.214844 11.109375 93.929688 11.113281 93.644531 C 11.121094 93.359375 11.15625 93.078125 11.214844 92.800781 C 11.277344 92.523438 11.367188 92.253906 11.480469 91.992188 Z M 11.480469 91.992188 " fill-opacity="1" fill-rule="nonzero"/></g><path fill="#000000" d="M 45.8125 24.65625 L 76.171875 53.882812 " fill-opacity="1" fill-rule="nonzero"/><path fill="#6e56cf" d="M 48.820312 21.53125 L 79.179688 50.757812 C 79.386719 50.953125 79.570312 51.171875 79.734375 51.402344 C 79.894531 51.636719 80.035156 51.886719 80.148438 52.144531 C 80.261719 52.40625 80.351562 52.675781 80.410156 52.957031 C 80.472656 53.234375 80.503906 53.515625 80.511719 53.800781 C 80.515625 54.085938 80.492188 54.367188 80.441406 54.648438 C 80.390625 54.929688 80.316406 55.203125 80.210938 55.46875 C 80.105469 55.734375 79.976562 55.984375 79.824219 56.226562 C 79.671875 56.464844 79.496094 56.6875 79.296875 56.894531 C 79.101562 57.097656 78.882812 57.28125 78.648438 57.445312 C 78.417969 57.609375 78.167969 57.746094 77.90625 57.859375 C 77.648438 57.972656 77.375 58.0625 77.097656 58.121094 C 76.820312 58.183594 76.539062 58.214844 76.253906 58.222656 C 75.96875 58.226562 75.6875 58.203125 75.40625 58.15625 C 75.125 58.105469 74.851562 58.027344 74.585938 57.921875 C 74.320312 57.820312 74.070312 57.691406 73.828125 57.535156 C 73.589844 57.382812 73.367188 57.207031 73.160156 57.007812 L 42.800781 27.78125 C 42.597656 27.585938 42.414062 27.367188 42.25 27.136719 C 42.085938 26.902344 41.949219 26.652344 41.835938 26.390625 C 41.722656 26.132812 41.632812 25.863281 41.574219 25.582031 C 41.511719 25.304688 41.480469 25.023438 41.472656 24.738281 C 41.46875 24.453125 41.492188 24.171875 41.539062 23.890625 C 41.589844 23.609375 41.667969 23.335938 41.773438 23.070312 C 41.875 22.804688 42.003906 22.554688 42.160156 22.3125 C 42.3125 22.074219 42.488281 21.851562 42.6875 21.644531 C 42.882812 21.441406 43.097656 21.257812 43.332031 21.09375 C 43.566406 20.929688 43.816406 20.792969 44.074219 20.679688 C 44.335938 20.566406 44.605469 20.476562 44.886719 20.417969 C 45.164062 20.355469 45.445312 20.320312 45.730469 20.316406 C 46.015625 20.3125 46.296875 20.332031 46.578125 20.382812 C 46.859375 20.433594 47.132812 20.511719 47.398438 20.617188 C 47.660156 20.71875 47.914062 20.847656 48.15625 21.003906 C 48.394531 21.15625 48.617188 21.332031 48.820312 21.53125 Z M 48.820312 21.53125 " fill-opacity="1" fill-rule="nonzero"/><path fill="#000000" d="M 76.171875 53.882812 L 106.53125 6.054688 " fill-opacity="1" fill-rule="nonzero"/><path fill="#6e56cf" d="M 72.507812 51.558594 L 102.867188 3.730469 C 103.019531 3.492188 103.195312 3.265625 103.390625 3.0625 C 103.585938 2.855469 103.800781 2.667969 104.035156 2.503906 C 104.269531 2.34375 104.515625 2.203125 104.777344 2.085938 C 105.035156 1.972656 105.304688 1.882812 105.582031 1.820312 C 105.863281 1.757812 106.144531 1.726562 106.429688 1.71875 C 106.714844 1.710938 106.996094 1.734375 107.277344 1.78125 C 107.558594 1.832031 107.832031 1.90625 108.097656 2.007812 C 108.363281 2.113281 108.613281 2.238281 108.855469 2.394531 C 109.097656 2.546875 109.320312 2.71875 109.527344 2.917969 C 109.730469 3.113281 109.917969 3.328125 110.082031 3.5625 C 110.246094 3.792969 110.382812 4.042969 110.5 4.300781 C 110.613281 4.5625 110.703125 4.832031 110.765625 5.109375 C 110.828125 5.386719 110.863281 5.671875 110.867188 5.953125 C 110.875 6.238281 110.855469 6.523438 110.804688 6.804688 C 110.757812 7.082031 110.679688 7.355469 110.578125 7.621094 C 110.472656 7.890625 110.347656 8.140625 110.195312 8.382812 L 79.835938 56.207031 C 79.683594 56.449219 79.507812 56.671875 79.3125 56.878906 C 79.113281 57.085938 78.898438 57.269531 78.667969 57.433594 C 78.433594 57.597656 78.1875 57.738281 77.925781 57.851562 C 77.664062 57.96875 77.394531 58.054688 77.117188 58.117188 C 76.839844 58.179688 76.558594 58.214844 76.273438 58.222656 C 75.988281 58.226562 75.707031 58.207031 75.425781 58.15625 C 75.144531 58.109375 74.871094 58.03125 74.605469 57.929688 C 74.339844 57.828125 74.085938 57.699219 73.84375 57.546875 C 73.605469 57.394531 73.382812 57.21875 73.175781 57.023438 C 72.96875 56.824219 72.785156 56.609375 72.621094 56.378906 C 72.457031 56.144531 72.316406 55.898438 72.203125 55.636719 C 72.085938 55.375 71.996094 55.105469 71.9375 54.828125 C 71.875 54.550781 71.839844 54.269531 71.832031 53.984375 C 71.824219 53.699219 71.847656 53.417969 71.894531 53.136719 C 71.945312 52.855469 72.019531 52.582031 72.125 52.316406 C 72.226562 52.050781 72.355469 51.796875 72.507812 51.558594 Z M 102.191406 6.054688 C 102.191406 5.773438 102.21875 5.488281 102.273438 5.210938 C 102.328125 4.929688 102.410156 4.660156 102.519531 4.394531 C 102.628906 4.132812 102.761719 3.882812 102.921875 3.644531 C 103.078125 3.410156 103.261719 3.1875 103.460938 2.988281 C 103.664062 2.785156 103.882812 2.605469 104.117188 2.449219 C 104.355469 2.289062 104.605469 2.15625 104.871094 2.046875 C 105.132812 1.9375 105.402344 1.855469 105.683594 1.800781 C 105.960938 1.746094 106.246094 1.71875 106.53125 1.71875 C 106.816406 1.71875 107.097656 1.746094 107.375 1.800781 C 107.65625 1.855469 107.925781 1.9375 108.191406 2.046875 C 108.453125 2.15625 108.703125 2.289062 108.941406 2.449219 C 109.179688 2.605469 109.398438 2.785156 109.597656 2.988281 C 109.800781 3.1875 109.980469 3.410156 110.136719 3.644531 C 110.296875 3.882812 110.429688 4.132812 110.539062 4.394531 C 110.648438 4.660156 110.730469 4.929688 110.785156 5.210938 C 110.84375 5.488281 110.871094 5.773438 110.871094 6.054688 C 110.871094 6.339844 110.84375 6.625 110.785156 6.902344 C 110.730469 7.183594 110.648438 7.453125 110.539062 7.71875 C 110.429688 7.980469 110.296875 8.230469 110.136719 8.46875 C 109.980469 8.703125 109.800781 8.925781 109.597656 9.125 C 109.398438 9.328125 109.179688 9.507812 108.941406 9.664062 C 108.703125 9.824219 108.453125 9.957031 108.191406 10.066406 C 107.925781 10.175781 107.65625 10.257812 107.375 10.3125 C 107.097656 10.367188 106.816406 10.394531 106.53125 10.394531 C 106.246094 10.394531 105.960938 10.367188 105.683594 10.3125 C 105.402344 10.257812 105.132812 10.175781 104.871094 10.066406 C 104.605469 9.957031 104.355469 9.824219 104.117188 9.664062 C 103.882812 9.507812 103.664062 9.328125 103.460938 9.125 C 103.261719 8.925781 103.078125 8.703125 102.921875 8.46875 C 102.761719 8.230469 102.628906 7.980469 102.519531 7.71875 C 102.410156 7.453125 102.328125 7.183594 102.273438 6.902344 C 102.21875 6.625 102.191406 6.339844 102.191406 6.054688 Z M 102.191406 6.054688 " fill-opacity="1" fill-rule="nonzero"/></g></g><path stroke-linecap="butt" transform="matrix(0.398774, -0.6352, 0.6352, 0.398774, 120.551445, 191.809924)" fill="none" stroke-linejoin="miter" d="M 0.000481438 5.50258 L 52.437911 5.50172 " stroke="#6e56cf" stroke-width="11" stroke-opacity="1" stroke-miterlimit="4"/><path stroke-linecap="round" transform="matrix(0.398774, -0.6352, 0.6352, 0.398774, 120.551445, 191.809924)" fill="none" stroke-linejoin="round" d="M 30.437962 -10.998424 L 52.437911 5.50172 L 30.436814 22.001258 " stroke="#6e56cf" stroke-width="11" stroke-opacity="1" stroke-miterlimit="4"/><g fill="#2a3847" fill-opacity="1"><g transform="translate(187.499992, 177.24998)"><g><path d="M 15.765625 0.28125 C 13.117188 0.28125 10.695312 -0.332031 8.5 -1.5625 C 6.300781 -2.789062 4.550781 -4.503906 3.25 -6.703125 C 1.957031 -8.898438 1.3125 -11.375 1.3125 -14.125 C 1.3125 -16.863281 1.957031 -19.328125 3.25 -21.515625 C 4.550781 -23.703125 6.300781 -25.410156 8.5 -26.640625 C 10.695312 -27.867188 13.117188 -28.484375 15.765625 -28.484375 C 18.398438 -28.484375 20.816406 -27.867188 23.015625 -26.640625 C 25.210938 -25.410156 26.945312 -23.703125 28.21875 -21.515625 C 29.488281 -19.328125 30.125 -16.863281 30.125 -14.125 C 30.125 -11.375 29.484375 -8.898438 28.203125 -6.703125 C 26.921875 -4.503906 25.1875 -2.789062 23 -1.5625 C 20.8125 -0.332031 18.398438 0.28125 15.765625 0.28125 Z M 15.765625 -5.953125 C 18.003906 -5.953125 19.796875 -6.695312 21.140625 -8.1875 C 22.484375 -9.6875 23.15625 -11.664062 23.15625 -14.125 C 23.15625 -16.601562 22.484375 -18.582031 21.140625 -20.0625 C 19.796875 -21.539062 18.003906 -22.28125 15.765625 -22.28125 C 13.492188 -22.28125 11.679688 -21.546875 10.328125 -20.078125 C 8.984375 -18.609375 8.3125 -16.625 8.3125 -14.125 C 8.3125 -11.644531 8.984375 -9.660156 10.328125 -8.171875 C 11.679688 -6.691406 13.492188 -5.953125 15.765625 -5.953125 Z M 15.765625 -5.953125 "/></g></g></g><g fill="#2a3847" fill-opacity="1"><g transform="translate(218.936865, 177.24998)"><g><path d="M 16.078125 -22.5625 C 18.691406 -22.5625 20.78125 -21.710938 22.34375 -20.015625 C 23.90625 -18.328125 24.6875 -16.003906 24.6875 -13.046875 L 24.6875 0 L 17.875 0 L 17.875 -12.125 C 17.875 -13.613281 17.488281 -14.769531 16.71875 -15.59375 C 15.945312 -16.425781 14.90625 -16.84375 13.59375 -16.84375 C 12.289062 -16.84375 11.25 -16.425781 10.46875 -15.59375 C 9.695312 -14.769531 9.3125 -13.613281 9.3125 -12.125 L 9.3125 0 L 2.484375 0 L 2.484375 -22.3125 L 9.3125 -22.3125 L 9.3125 -19.359375 C 10.007812 -20.347656 10.941406 -21.128906 12.109375 -21.703125 C 13.285156 -22.273438 14.609375 -22.5625 16.078125 -22.5625 Z M 16.078125 -22.5625 "/></g></g></g><g fill="#2a3847" fill-opacity="1"><g transform="translate(245.894188, 177.24998)"><g><path d="M 23.515625 -11.515625 C 23.515625 -10.878906 23.476562 -10.210938 23.40625 -9.515625 L 7.921875 -9.515625 C 8.023438 -8.128906 8.46875 -7.066406 9.25 -6.328125 C 10.039062 -5.597656 11.007812 -5.234375 12.15625 -5.234375 C 13.863281 -5.234375 15.050781 -5.957031 15.71875 -7.40625 L 23 -7.40625 C 22.625 -5.9375 21.945312 -4.613281 20.96875 -3.4375 C 20 -2.269531 18.78125 -1.351562 17.3125 -0.6875 C 15.851562 -0.0195312 14.21875 0.3125 12.40625 0.3125 C 10.21875 0.3125 8.269531 -0.148438 6.5625 -1.078125 C 4.851562 -2.015625 3.519531 -3.347656 2.5625 -5.078125 C 1.601562 -6.816406 1.125 -8.84375 1.125 -11.15625 C 1.125 -13.476562 1.59375 -15.503906 2.53125 -17.234375 C 3.476562 -18.972656 4.804688 -20.304688 6.515625 -21.234375 C 8.222656 -22.171875 10.1875 -22.640625 12.40625 -22.640625 C 14.5625 -22.640625 16.476562 -22.1875 18.15625 -21.28125 C 19.84375 -20.375 21.15625 -19.078125 22.09375 -17.390625 C 23.039062 -15.710938 23.515625 -13.753906 23.515625 -11.515625 Z M 16.515625 -13.3125 C 16.515625 -14.488281 16.113281 -15.421875 15.3125 -16.109375 C 14.519531 -16.804688 13.519531 -17.15625 12.3125 -17.15625 C 11.164062 -17.15625 10.195312 -16.820312 9.40625 -16.15625 C 8.625 -15.488281 8.140625 -14.539062 7.953125 -13.3125 Z M 16.515625 -13.3125 "/></g></g></g><g fill="#2a3847" fill-opacity="1"><g transform="translate(187.499992, 214.008927)"><g><path d="M 27.390625 -26.671875 L 17.9375 0 L 9.796875 0 L 0.34375 -26.671875 L 7.265625 -26.671875 L 13.875 -6.53125 L 20.515625 -26.671875 Z M 27.390625 -26.671875 "/></g></g></g><g fill="#2a3847" fill-opacity="1"><g transform="translate(215.234324, 214.008927)"><g><path d="M 5.625 -23.40625 C 4.476562 -23.40625 3.546875 -23.738281 2.828125 -24.40625 C 2.109375 -25.082031 1.75 -25.914062 1.75 -26.90625 C 1.75 -27.914062 2.109375 -28.753906 2.828125 -29.421875 C 3.546875 -30.097656 4.476562 -30.4375 5.625 -30.4375 C 6.738281 -30.4375 7.65625 -30.097656 8.375 -29.421875 C 9.101562 -28.753906 9.46875 -27.914062 9.46875 -26.90625 C 9.46875 -25.914062 9.101562 -25.082031 8.375 -24.40625 C 7.65625 -23.738281 6.738281 -23.40625 5.625 -23.40625 Z M 8.859375 -21.203125 L 8.859375 0 L 2.359375 0 L 2.359375 -21.203125 Z M 8.859375 -21.203125 "/></g></g></g><g fill="#2a3847" fill-opacity="1"><g transform="translate(226.442037, 214.008927)"><g><path d="M 22.34375 -10.9375 C 22.34375 -10.332031 22.304688 -9.703125 22.234375 -9.046875 L 7.53125 -9.046875 C 7.625 -7.722656 8.046875 -6.710938 8.796875 -6.015625 C 9.546875 -5.328125 10.460938 -4.984375 11.546875 -4.984375 C 13.171875 -4.984375 14.300781 -5.664062 14.9375 -7.03125 L 21.84375 -7.03125 C 21.488281 -5.632812 20.847656 -4.378906 19.921875 -3.265625 C 19.003906 -2.148438 17.847656 -1.273438 16.453125 -0.640625 C 15.054688 -0.015625 13.5 0.296875 11.78125 0.296875 C 9.695312 0.296875 7.84375 -0.144531 6.21875 -1.03125 C 4.601562 -1.914062 3.335938 -3.179688 2.421875 -4.828125 C 1.515625 -6.472656 1.0625 -8.398438 1.0625 -10.609375 C 1.0625 -12.804688 1.507812 -14.726562 2.40625 -16.375 C 3.3125 -18.019531 4.570312 -19.285156 6.1875 -20.171875 C 7.8125 -21.066406 9.675781 -21.515625 11.78125 -21.515625 C 13.832031 -21.515625 15.65625 -21.082031 17.25 -20.21875 C 18.84375 -19.351562 20.085938 -18.125 20.984375 -16.53125 C 21.890625 -14.9375 22.34375 -13.070312 22.34375 -10.9375 Z M 15.6875 -12.65625 C 15.6875 -13.769531 15.304688 -14.65625 14.546875 -15.3125 C 13.785156 -15.96875 12.835938 -16.296875 11.703125 -16.296875 C 10.609375 -16.296875 9.6875 -15.976562 8.9375 -15.34375 C 8.195312 -14.71875 7.738281 -13.820312 7.5625 -12.65625 Z M 15.6875 -12.65625 "/></g></g></g><g fill="#2a3847" fill-opacity="1"><g transform="translate(249.84526, 214.008927)"><g><path d="M 32.796875 -21.203125 L 27.0625 0 L 19.875 0 L 16.53125 -13.75 L 13.078125 0 L 5.921875 0 L 0.15625 -21.203125 L 6.65625 -21.203125 L 9.65625 -6.046875 L 13.21875 -21.203125 L 20.109375 -21.203125 L 23.71875 -6.125 L 26.671875 -21.203125 Z M 32.796875 -21.203125 "/></g></g></g></svg>